<?xml version="1.0" standalone="no"?>
<!DOCTYPE svg PUBLIC "-//W3C//DTD SVG 20010904//EN"
 "http://www.w3.org/TR/2001/REC-SVG-20010904/DTD/svg10.dtd">
<svg version="1.0" xmlns="http://www.w3.org/2000/svg"
 width="403.000000pt" height="68.000000pt" viewBox="0 0 403.000000 68.000000"
 preserveAspectRatio="xMidYMid meet">

<g transform="translate(0.000000,68.000000) scale(0.100000,-0.100000)"
fill="#000000" stroke="none">
<path d="M1925 668 c-32 -19 -44 -40 -45 -81 0 -33 5 -40 41 -65 101 -66 119
-103 74 -147 -26 -27 -18 -32 18 -13 33 17 46 39 47 78 0 47 -21 75 -80 105
-27 14 -54 34 -60 46 -17 30 -4 68 24 75 38 9 65 -4 86 -44 10 -20 19 -30 19
-22 1 36 -12 57 -43 68 -40 15 -55 15 -81 0z"/>
<path d="M3885 675 c6 -2 22 -6 36 -9 17 -4 32 -18 42 -38 l17 -33 0 30 c0 26
-5 33 -33 43 -18 7 -42 12 -53 11 -10 0 -14 -2 -9 -4z"/>
<path d="M2210 639 l0 -32 20 26 c12 16 33 27 53 30 22 3 15 4 -20 5 l-53 2 0
-31z"/>
<path d="M2335 525 c0 -119 -3 -148 -15 -155 -11 -7 1 -10 39 -10 49 0 52 2
40 17 -10 12 -14 52 -14 154 l0 139 -25 0 -25 0 0 -145z"/>
<path d="M2425 665 c6 -2 23 -6 38 -9 19 -5 33 -17 42 -39 l14 -32 1 43 0 42
-52 -1 c-29 0 -48 -2 -43 -4z"/>
<path d="M2684 654 c13 -12 16 -40 16 -143 0 -85 -4 -131 -12 -139 -9 -9 -1
-12 37 -12 38 0 46 3 37 12 -8 8 -12 55 -12 145 0 115 2 133 18 142 13 8 3 10
-41 11 -53 0 -57 -1 -43 -16z"/>
<path d="M2966 656 c16 -12 19 -29 22 -125 3 -84 0 -118 -11 -141 l-15 -30 51
0 c37 0 48 3 37 10 -23 14 -27 243 -5 276 l15 24 -57 0 c-51 0 -55 -1 -37 -14z"/>
<path d="M3147 654 c4 -10 -13 -35 -52 -74 -38 -38 -53 -60 -45 -65 23 -15
101 -129 96 -142 -4 -10 8 -13 51 -13 l56 0 -25 19 c-29 23 -138 164 -138 179
0 6 27 33 61 61 l61 51 -36 0 c-28 0 -34 -3 -29 -16z"/>
<path d="M3413 659 c15 -9 17 -27 17 -142 0 -90 -4 -137 -12 -145 -9 -9 1 -12
47 -12 53 0 57 1 39 14 -17 13 -19 27 -19 155 l0 141 -45 0 c-35 -1 -41 -3
-27 -11z"/>
<path d="M3576 659 c17 -5 36 -19 42 -31 10 -22 11 -21 11 10 1 31 0 32 -41
31 -42 -1 -42 -1 -12 -10z"/>
<path d="M3840 650 c-13 -13 -20 -33 -20 -58 0 -42 20 -67 77 -96 36 -18 63
-52 63 -79 0 -10 -11 -29 -25 -42 -26 -27 -18 -32 18 -13 33 17 46 39 47 78 0
47 -21 75 -81 106 -58 29 -78 61 -61 99 14 30 9 32 -18 5z"/>
<path d="M3534 536 l-22 -12 24 -21 24 -21 0 34 c0 19 -1 34 -2 33 -2 -1 -13
-6 -24 -13z"/>
<path d="M3646 415 c-3 -13 -19 -31 -34 -39 l-27 -15 38 -1 c37 0 37 0 37 40
0 46 -5 51 -14 15z"/>
<path d="M1870 400 c0 -27 4 -36 18 -37 9 -1 28 -4 42 -7 24 -6 24 -6 3 3 -13
6 -32 25 -43 43 l-20 33 0 -35z"/>
<path d="M3810 400 c0 -27 4 -36 18 -36 9 -1 26 -4 37 -8 18 -7 19 -7 2 4 -10
7 -27 26 -38 43 l-19 32 0 -35z"/>
<path d="M1888 124 c3 -64 0 -89 -10 -95 -8 -6 1 -9 26 -9 32 0 37 2 26 14 -7
10 -10 43 -8 95 3 75 2 81 -17 81 -19 0 -20 -6 -17 -86z"/>
<path d="M1958 200 c23 -10 31 -53 12 -65 -6 -4 -3 -16 10 -32 25 -32 25 -38
0 -63 -20 -20 -20 -20 0 -20 11 0 27 11 36 26 16 24 16 27 -3 52 -15 22 -17
32 -9 55 9 24 7 31 -9 43 -10 8 -28 14 -39 13 -20 0 -20 -1 2 -9z"/>
<path d="M2097 199 c-47 -27 -58 -117 -19 -151 31 -27 49 -33 29 -10 -28 31
-32 90 -9 135 11 20 19 37 18 37 0 0 -9 -5 -19 -11z"/>
<path d="M2181 191 c32 -26 35 -117 4 -151 l-20 -23 22 12 c59 31 71 105 24
152 -16 16 -35 29 -41 29 -7 0 -2 -9 11 -19z"/>
<path d="M2295 185 c-47 -46 -24 -165 30 -165 11 0 10 5 -5 20 -28 28 -28 108
1 144 26 33 6 34 -26 1z"/>
<path d="M2396 187 c11 -12 20 -24 21 -26 2 -2 3 5 3 16 0 13 -8 23 -21 26
-20 5 -20 5 -3 -16z"/>
<path d="M2503 192 c-49 -39 -49 -122 0 -157 31 -21 41 -19 17 5 -15 15 -20
33 -20 75 0 42 5 60 20 75 24 24 13 26 -17 2z"/>
<path d="M2598 185 c29 -37 30 -103 1 -139 -29 -37 -6 -33 25 5 42 50 30 120
-26 150 l-21 12 21 -28z"/>
<path d="M2688 198 c16 -16 16 -150 0 -166 -9 -9 -3 -12 27 -11 22 0 34 3 28
6 -9 3 -13 31 -13 90 0 82 1 84 23 81 31 -4 38 -67 9 -75 -20 -5 -19 -6 4 -40
13 -20 24 -42 24 -49 0 -8 9 -14 19 -14 18 0 18 2 -4 48 -20 40 -21 49 -9 58
21 16 18 61 -5 74 -11 5 -41 10 -67 10 -37 0 -45 -3 -36 -12z"/>
<path d="M2938 130 c3 -54 0 -85 -8 -95 -11 -13 -8 -15 19 -15 28 0 31 2 21
19 -5 11 -10 31 -10 45 0 24 3 26 50 26 47 0 50 -2 50 -26 0 -14 -5 -34 -10
-45 -10 -17 -7 -19 21 -19 27 0 30 2 19 15 -9 10 -11 40 -8 95 5 79 4 80 -19
80 -20 0 -22 -3 -13 -19 5 -11 10 -31 10 -45 0 -24 -3 -26 -50 -26 -47 0 -50
2 -50 26 0 14 5 34 10 45 9 16 7 19 -12 19 -23 0 -23 -2 -20 -80z"/>
<path d="M3138 198 c7 -7 12 -39 12 -76 0 -69 12 -102 37 -102 12 0 13 3 3 14
-7 10 -10 43 -8 95 l3 81 -29 0 c-23 0 -27 -3 -18 -12z"/>
<path d="M3277 163 c7 -72 10 -74 14 -10 3 38 0 57 -7 57 -8 0 -10 -16 -7 -47z"/>
<path d="M3352 198 c-7 -7 -12 -25 -12 -40 0 -22 8 -33 34 -49 37 -21 49 -47
34 -73 -11 -20 5 -22 21 -2 23 28 9 69 -32 96 -32 20 -38 29 -35 52 5 32 6 32
-10 16z"/>
<path d="M3411 193 c7 -10 15 -20 16 -22 2 -2 3 3 3 11 0 9 -7 19 -16 22 -15
6 -15 4 -3 -11z"/>
<path d="M3532 190 c-5 -14 -6 -26 -2 -28 4 -2 18 -30 31 -63 19 -51 20 -62 8
-70 -10 -6 -2 -9 25 -9 34 0 37 2 25 16 -7 9 -28 53 -45 98 -30 75 -33 79 -42
56z"/>
<path d="M3658 198 c16 -16 16 -150 0 -166 -9 -9 -3 -12 27 -11 22 0 34 3 28
6 -9 3 -13 31 -13 89 l0 85 33 -3 c62 -6 86 -109 36 -159 -22 -22 -20 -23 14
-10 58 22 56 136 -3 166 -36 19 -140 21 -122 3z"/>
<path d="M3916 183 c-4 -9 -3 -19 2 -22 15 -11 44 -102 39 -122 -4 -16 0 -19
30 -19 30 0 33 2 20 15 -8 8 -27 48 -42 90 -28 76 -38 88 -49 58z"/>
<path d="M3501 113 c-1 -6 -4 -20 -7 -30 -5 -17 -5 -17 6 0 6 10 9 23 6 30 -3
9 -5 9 -5 0z"/>
<path d="M3886 105 c-9 -26 -7 -32 5 -12 6 10 9 21 6 23 -2 3 -7 -2 -11 -11z"/>
<path d="M2394 74 c3 -8 1 -24 -4 -35 -6 -10 -7 -19 -2 -19 13 0 28 20 36 48
6 18 4 22 -14 22 -16 0 -20 -4 -16 -16z"/>
<path d="M3331 54 c-1 -12 6 -25 15 -28 13 -5 14 -3 7 6 -6 7 -13 20 -16 28
-4 10 -6 8 -6 -6z"/>
<path d="M3870 61 c0 -5 -7 -17 -16 -25 -14 -15 -13 -16 12 -16 21 0 25 3 17
11 -6 6 -9 18 -6 25 3 8 2 14 -1 14 -3 0 -6 -4 -6 -9z"/>
<path d="M3472 40 c-11 -17 -10 -20 7 -20 14 0 18 5 14 20 -3 11 -6 20 -7 20
-1 0 -7 -9 -14 -20z"/>
</g>
</svg>
